<svg xmlns="http://www.w3.org/2000/svg" viewBox="0 0 512 512">
  <path fill="#2c3e50" d="M256 48C141.1 48 48 141.1 48 256s93.1 208 208 208 208-93.1 208-208S370.9 48 256 48zm0 384c-97.2 0-176-78.8-176-176S158.8 80 256 80s176 78.8 176 176-78.8 176-176 176z"/>
  <path fill="#18a058" d="M256 128c-70.7 0-128 57.3-128 128 0 47.3 25.7 88.7 64 111.1V288c0-35.3 28.7-64 64-64s64 28.7 64 64v79.1c38.3-22.4 64-63.8 64-111.1 0-70.7-57.3-128-128-128zm32 160c0-17.6-14.4-32-32-32s-32 14.4-32 32v48c0 17.6 14.4 32 32 32s32-14.4 32-32v-48z"/>
  <path fill="#2c3e50" d="M208 216c-13.3 0-24 10.7-24 24s10.7 24 24 24 24-10.7 24-24-10.7-24-24-24zm96 0c-13.3 0-24 10.7-24 24s10.7 24 24 24 24-10.7 24-24-10.7-24-24-24z"/>
  <path fill="#18a058" d="M335.9 272c-8.8 0-16 7.2-16 16v32c0 8.8 7.2 16 16 16s16-7.2 16-16v-32c0-8.8-7.2-16-16-16zm-159.8 0c-8.8 0-16 7.2-16 16v32c0 8.8 7.2 16 16 16s16-7.2 16-16v-32c0-8.8-7.2-16-16-16z"/>
</svg> 